<svg width="812" height="805" xmlns="http://www.w3.org/2000/svg" xmlns:xlink="http://www.w3.org/1999/xlink" xml:space="preserve" overflow="hidden"><g transform="translate(-1559 -668)"><path d="M1573.5 1070.5C1538.28 813.688 1802.14 660.884 1963.5 680.5 2160.25 690.976 2404.55 839.876 2353.5 1070.5 2345.08 1269.11 2172.21 1481.29 1963.5 1460.5 1779.46 1417.25 1636.18 1280.73 1573.5 1070.5Z" stroke="#0000FF" stroke-width="20.625" stroke-miterlimit="8" stroke-dasharray="82.5 61.875" fill="#FFFFFF" fill-rule="evenodd"/><path d="M1619.1 1028.96 1662.66 1036.17 1664.81 1023.16C1665.53 1018.8 1665.57 1015.08 1664.93 1012.01 1664.29 1008.95 1663.14 1006.27 1661.47 1003.98 1659.81 1001.7 1657.68 999.821 1655.08 998.356 1652.47 996.89 1649.55 995.889 1646.3 995.352 1641.89 994.62 1638.06 994.834 1634.82 995.994 1631.58 997.153 1629.03 998.829 1627.17 1001.02 1625.32 1003.22 1623.98 1005.58 1623.15 1008.12 1622.33 1010.65 1621.72 1013.15 1621.31 1015.61ZM1605.74 1035.71 1609.59 1012.47C1609.98 1010.12 1610.45 1007.88 1611 1005.76 1611.55 1003.64 1612.39 1001.16 1613.52 998.331 1614.65 995.501 1616.35 992.707 1618.62 989.949 1620.88 987.192 1623.48 984.963 1626.41 983.263 1629.33 981.563 1632.58 980.42 1636.16 979.833 1639.73 979.247 1643.56 979.292 1647.64 979.968 1653.07 980.866 1657.82 982.572 1661.89 985.084 1665.95 987.597 1669.25 990.773 1671.78 994.611 1674.3 998.449 1676 1002.93 1676.88 1008.04 1677.76 1013.16 1677.64 1019.08 1676.53 1025.79L1674.49 1038.13 1713.59 1044.6C1714.04 1044.67 1714.41 1044.87 1714.71 1045.17 1715 1045.48 1715.2 1045.92 1715.31 1046.48 1715.42 1047.04 1715.47 1047.8 1715.45 1048.74 1715.44 1049.69 1715.32 1050.86 1715.09 1052.26 1714.85 1053.66 1714.59 1054.81 1714.3 1055.71 1714.01 1056.61 1713.72 1057.32 1713.43 1057.85 1713.14 1058.38 1712.81 1058.73 1712.44 1058.89 1712.06 1059.06 1711.65 1059.11 1711.21 1059.04L1611 1042.45C1608.77 1042.08 1607.27 1041.23 1606.51 1039.89 1605.76 1038.56 1605.5 1037.17 1605.74 1035.71Z" fill="#0000FF" fill-rule="evenodd"/><text fill="#000000" fill-opacity="0" font-family="Arial,Arial_MSFontService,sans-serif" font-size="79.6445" x="1605.65" y="1049.11">P</text><path d="M1656.45 946.083C1657.22 944.567 1657.86 943.399 1658.38 942.578 1658.89 941.758 1659.38 941.146 1659.84 940.744 1660.3 940.341 1660.77 940.123 1661.27 940.088 1661.76 940.054 1662.4 940.077 1663.19 940.159L1727.84 948.536 1727.95 948.309 1682.49 901.495C1681.68 900.703 1681.25 900.021 1681.19 899.45 1681.13 898.879 1681.26 898.132 1681.57 897.208 1681.88 896.285 1682.44 895.014 1683.27 893.397 1683.99 891.982 1684.64 890.852 1685.23 890.007 1685.82 889.161 1686.4 888.614 1686.97 888.364 1687.55 888.115 1688.14 888.144 1688.74 888.453 1689.35 888.762 1690.03 889.299 1690.79 890.065L1746.17 949.086 1766.63 970.956C1767.29 971.67 1767.51 972.756 1767.31 974.213 1767.11 975.67 1766.37 977.662 1765.08 980.189 1764.41 981.503 1763.81 982.532 1763.27 983.276 1762.73 984.02 1762.2 984.53 1761.68 984.805 1761.16 985.081 1760.63 985.115 1760.1 984.908 1759.57 984.701 1759.03 984.266 1758.48 983.603L1739.53 962.125C1739.1 962.477 1738.55 962.74 1737.89 962.912 1737.23 963.085 1736.61 963.119 1736.03 963.013L1658.45 954.163C1657.18 954.027 1656.24 953.804 1655.64 953.496 1655.03 953.187 1654.65 952.74 1654.5 952.156 1654.36 951.572 1654.45 950.792 1654.79 949.818 1655.12 948.844 1655.68 947.599 1656.45 946.083Z" fill="#0000FF" fill-rule="evenodd"/><text fill="#000000" fill-opacity="0" font-family="Arial,Arial_MSFontService,sans-serif" font-size="96.8442" x="1654.44" y="972.936">y</text><path d="M1735.83 846.227C1732.9 849.205 1730.91 852.282 1729.85 855.458 1728.8 858.634 1728.55 861.86 1729.1 865.136 1729.66 868.411 1730.92 871.678 1732.89 874.936 1734.85 878.193 1737.39 881.353 1740.51 884.414 1743.5 887.357 1746.58 889.845 1749.75 891.878 1752.92 893.912 1756.12 895.25 1759.34 895.893 1762.57 896.537 1765.82 896.344 1769.1 895.315 1772.38 894.286 1775.6 892.16 1778.77 888.936 1781.66 885.998 1783.64 882.931 1784.72 879.735 1785.79 876.539 1786.06 873.313 1785.52 870.057 1784.99 866.802 1783.73 863.555 1781.74 860.318 1779.75 857.08 1777.18 853.911 1774.03 850.809 1771.08 847.907 1768.02 845.439 1764.85 843.405 1761.68 841.372 1758.48 840.013 1755.25 839.33 1752.03 838.646 1748.78 838.819 1745.5 839.848 1742.22 840.877 1739 843.004 1735.83 846.227ZM1727.84 837.603C1732.26 833.115 1736.77 829.859 1741.39 827.835 1746 825.812 1750.67 824.94 1755.41 825.221 1760.14 825.502 1764.88 826.876 1769.61 829.343 1774.34 831.809 1778.99 835.289 1783.56 839.782 1788.01 844.156 1791.53 848.768 1794.11 853.618 1796.7 858.469 1798.21 863.388 1798.63 868.377 1799.05 873.366 1798.3 878.355 1796.38 883.344 1794.45 888.332 1791.23 893.131 1786.69 897.741 1782.28 902.229 1777.77 905.485 1773.15 907.509 1768.54 909.532 1763.86 910.404 1759.13 910.123 1754.39 909.842 1749.67 908.458 1744.96 905.971 1740.25 903.484 1735.59 899.975 1730.98 895.442 1726.53 891.068 1723 886.466 1720.39 881.636 1717.79 876.806 1716.27 871.896 1715.85 866.907 1715.43 861.918 1716.18 856.949 1718.1 852.001 1720.02 847.052 1723.27 842.253 1727.84 837.603ZM1717.3 807.075C1719.49 804.851 1721.36 803.753 1722.93 803.78 1724.49 803.807 1726.35 804.874 1728.49 806.981 1730.71 809.168 1731.83 811.063 1731.84 812.667 1731.86 814.271 1730.79 816.165 1728.64 818.348 1726.5 820.532 1724.65 821.62 1723.11 821.613 1721.56 821.606 1719.72 820.549 1717.58 818.441 1715.31 816.215 1714.16 814.31 1714.13 812.726 1714.1 811.142 1715.15 809.259 1717.3 807.075ZM1696.19 828.546C1698.37 826.322 1700.25 825.223 1701.81 825.25 1703.38 825.277 1705.23 826.345 1707.38 828.452 1709.6 830.639 1710.72 832.534 1710.73 834.138 1710.74 835.742 1709.68 837.636 1707.53 839.819 1705.38 842.002 1703.54 843.091 1701.99 843.084 1700.45 843.076 1698.61 842.019 1696.46 839.912 1694.2 837.685 1693.05 835.78 1693.02 834.197 1692.98 832.613 1694.04 830.729 1696.19 828.546Z" fill="#0000FF" fill-rule="evenodd"/><text fill="#000000" fill-opacity="0" font-family="Arial,Arial_MSFontService,sans-serif" font-size="106.395" x="1693.02" y="896.875">ö</text><path d="M1813.96 774.302C1814.6 773.937 1815.35 773.561 1816.2 773.173 1817.06 772.784 1817.99 772.437 1818.99 772.13 1819.99 771.822 1820.91 771.589 1821.77 771.429 1822.62 771.269 1823.27 771.229 1823.7 771.307 1824.14 771.386 1824.47 771.508 1824.69 771.674 1824.92 771.839 1825.17 772.074 1825.44 772.377 1825.71 772.68 1826.04 773.157 1826.45 773.809 1826.85 774.461 1827.37 775.353 1828.02 776.487 1828.63 777.572 1829.13 778.498 1829.5 779.266 1829.87 780.033 1830.1 780.669 1830.19 781.172 1830.28 781.675 1830.28 782.1 1830.18 782.448 1830.09 782.796 1829.84 783.082 1829.45 783.307 1829.05 783.531 1828.51 783.693 1827.82 783.793 1827.12 783.894 1826.36 784.036 1825.51 784.22 1824.67 784.405 1823.75 784.651 1822.75 784.958 1821.75 785.265 1820.74 785.713 1819.7 786.301 1818.47 787.001 1817.4 787.934 1816.5 789.1 1815.59 790.265 1814.81 791.786 1814.15 793.663 1813.49 795.539 1812.97 797.82 1812.61 800.506 1812.24 803.193 1811.97 806.382 1811.78 810.074L1836.66 853.856C1836.89 854.25 1836.98 854.639 1836.94 855.022 1836.89 855.405 1836.71 855.822 1836.37 856.271 1836.04 856.72 1835.51 857.219 1834.78 857.765 1834.04 858.312 1833.06 858.936 1831.83 859.636 1830.65 860.309 1829.63 860.82 1828.79 861.17 1827.94 861.519 1827.23 861.729 1826.65 861.798 1826.07 861.867 1825.61 861.815 1825.29 861.641 1824.96 861.468 1824.69 861.185 1824.46 860.79L1786.64 794.23C1786.41 793.836 1786.3 793.461 1786.29 793.106 1786.29 792.751 1786.44 792.336 1786.76 791.862 1787.08 791.388 1787.56 790.918 1788.21 790.452 1788.86 789.985 1789.75 789.43 1790.88 788.786 1791.97 788.169 1792.89 787.695 1793.64 787.363 1794.4 787.03 1795.04 786.863 1795.56 786.861 1796.08 786.859 1796.5 786.944 1796.83 787.117 1797.16 787.29 1797.43 787.574 1797.66 787.968L1803.16 797.656C1803.47 793.957 1803.95 790.814 1804.6 788.227 1805.25 785.641 1806.02 783.46 1806.9 781.686 1807.79 779.912 1808.83 778.441 1810.02 777.273 1811.22 776.104 1812.53 775.114 1813.96 774.302Z" fill="#0000FF" fill-rule="evenodd"/><text fill="#000000" fill-opacity="0" font-family="Arial,Arial_MSFontService,sans-serif" font-size="90.5587" x="1786.29" y="850.507">r</text><path d="M1855.54 758.416C1856.88 757.953 1858 757.626 1858.89 757.437 1859.79 757.248 1860.51 757.177 1861.07 757.225 1861.62 757.272 1862.07 757.42 1862.39 757.667 1862.72 757.915 1862.94 758.226 1863.07 758.602L1888.08 830.958C1888.23 831.386 1888.25 831.785 1888.14 832.154 1888.03 832.523 1887.76 832.898 1887.36 833.279 1886.95 833.66 1886.33 834.053 1885.51 834.456 1884.69 834.86 1883.61 835.293 1882.27 835.756 1880.99 836.201 1879.9 836.518 1879 836.707 1878.11 836.896 1877.37 836.972 1876.78 836.933 1876.2 836.895 1875.76 836.761 1875.48 836.531 1875.19 836.301 1874.97 835.971 1874.82 835.543L1849.81 763.187C1849.68 762.811 1849.65 762.431 1849.73 762.044 1849.81 761.658 1850.06 761.269 1850.5 760.879 1850.93 760.489 1851.56 760.092 1852.38 759.688 1853.2 759.284 1854.25 758.86 1855.54 758.416ZM1845.31 728.561C1848.42 727.487 1850.74 727.3 1852.27 728 1853.8 728.7 1855.1 730.578 1856.15 733.633 1857.23 736.742 1857.37 739.063 1856.58 740.596 1855.79 742.129 1853.81 743.442 1850.65 744.535 1847.54 745.61 1845.22 745.797 1843.69 745.096 1842.16 744.396 1840.86 742.518 1839.81 739.463 1838.73 736.354 1838.59 734.033 1839.38 732.5 1840.17 730.967 1842.15 729.654 1845.31 728.561Z" fill="#0000FF" fill-rule="evenodd"/><text fill="#000000" fill-opacity="0" font-family="Arial,Arial_MSFontService,sans-serif" font-size="109.358" x="1838.88" y="823.273">i</text><path d="M1894.84 746.27C1896.47 746.073 1897.79 745.956 1898.78 745.921 1899.78 745.886 1900.56 745.949 1901.12 746.109 1901.68 746.27 1902.11 746.503 1902.41 746.81 1902.7 747.118 1902.99 747.511 1903.28 747.99L1932.32 808.049 1932.78 809.021 1932.91 807.977 1946.51 742.75C1946.56 742.23 1946.71 741.784 1946.95 741.412 1947.19 741.04 1947.56 740.709 1948.07 740.419 1948.58 740.129 1949.29 739.886 1950.21 739.689 1951.13 739.492 1952.35 739.301 1953.87 739.117 1955.16 738.96 1956.24 738.858 1957.09 738.812 1957.94 738.766 1958.62 738.827 1959.12 738.994 1959.63 739.161 1960 739.388 1960.23 739.673 1960.47 739.959 1960.61 740.327 1960.67 740.778 1960.7 741.003 1960.71 741.244 1960.71 741.501 1960.72 741.757 1960.71 742.03 1960.68 742.318 1960.66 742.606 1960.63 742.925 1960.59 743.273 1960.54 743.621 1960.49 743.998 1960.42 744.406L1943.25 819.748C1943.1 820.395 1942.86 820.938 1942.55 821.376 1942.23 821.814 1941.72 822.191 1941.01 822.504 1940.31 822.818 1939.4 823.086 1938.28 823.307 1937.17 823.527 1935.76 823.74 1934.07 823.945 1932.39 824.15 1930.97 824.264 1929.83 824.288 1928.69 824.312 1927.76 824.254 1927.03 824.114 1926.29 823.974 1925.71 823.731 1925.27 823.384 1924.82 823.038 1924.46 822.597 1924.16 822.061L1889.57 752.993C1889.27 752.344 1889.01 751.775 1888.81 751.286 1888.61 750.796 1888.48 750.426 1888.42 750.176 1888.36 749.927 1888.32 749.717 1888.3 749.548 1888.24 749.098 1888.31 748.69 1888.49 748.325 1888.68 747.96 1889.03 747.647 1889.54 747.385 1890.05 747.123 1890.74 746.911 1891.6 746.749 1892.47 746.587 1893.55 746.427 1894.84 746.27Z" fill="#0000FF" fill-rule="evenodd"/><text fill="#000000" fill-opacity="0" font-family="Arial,Arial_MSFontService,sans-serif" font-size="85.4955" x="1888.28" y="813.606">v</text><path d="M2013.98 789.268C2010.18 788.625 2006.83 788.387 2003.92 788.557 2001.02 788.727 1998.54 789.284 1996.48 790.23 1994.42 791.175 1992.81 792.455 1991.64 794.07 1990.48 795.684 1989.7 797.638 1989.31 799.93 1988.65 803.844 1989.37 807.172 1991.46 809.914 1993.56 812.655 1996.84 814.405 2001.31 815.162 2004.95 815.778 2008.47 815.426 2011.89 814.106 2015.3 812.786 2019.04 810.514 2023.09 807.29L2025.81 791.271ZM2017.39 743.688C2022.81 744.607 2027.32 746.003 2030.91 747.877 2034.51 749.751 2037.27 752.075 2039.22 754.849 2041.17 757.622 2042.37 760.861 2042.84 764.563 2043.3 768.265 2043.14 772.465 2042.34 777.161L2033.72 828.07C2033.61 828.741 2033.3 829.206 2032.8 829.466 2032.29 829.726 2031.64 829.873 2030.82 829.908 2030.01 829.944 2028.85 829.833 2027.34 829.578 2025.89 829.332 2024.74 829.051 2023.91 828.737 2023.07 828.422 2022.48 828.064 2022.15 827.662 2021.81 827.261 2021.7 826.724 2021.81 826.053L2023.09 818.505C2019.2 821.469 2015.06 823.586 2010.67 824.857 2006.29 826.127 2001.83 826.379 1997.3 825.612 1993.33 824.94 1989.83 823.814 1986.79 822.236 1983.75 820.657 1981.26 818.697 1979.33 816.357 1977.39 814.017 1976.04 811.314 1975.27 808.25 1974.49 805.185 1974.41 801.836 1975.03 798.201 1975.74 793.952 1977.24 790.408 1979.5 787.571 1981.76 784.733 1984.69 782.555 1988.29 781.035 1991.88 779.515 1996.11 778.636 2000.98 778.397 2005.85 778.158 2011.23 778.535 2017.1 779.529L2027.5 781.29 2028.49 775.42C2028.98 772.512 2029.11 769.888 2028.87 767.547 2028.64 765.207 2027.96 763.18 2026.84 761.466 2025.72 759.752 2024.14 758.333 2022.08 757.209 2020.03 756.085 2017.41 755.253 2014.22 754.714 2010.81 754.136 2007.68 754.023 2004.83 754.375 2001.99 754.726 1999.46 755.219 1997.25 755.851 1995.04 756.484 1993.19 757.09 1991.68 757.669 1990.17 758.248 1989.08 758.48 1988.41 758.367 1987.97 758.291 1987.59 758.113 1987.3 757.832 1987 757.552 1986.76 757.167 1986.59 756.677 1986.41 756.187 1986.33 755.583 1986.33 754.865 1986.34 754.147 1986.41 753.369 1986.55 752.53 1986.79 751.133 1987.08 750.045 1987.41 749.267 1987.74 748.49 1988.35 747.801 1989.23 747.202 1990.1 746.603 1991.55 745.971 1993.56 745.305 1995.57 744.639 1997.85 744.104 2000.39 743.7 2002.93 743.297 2005.67 743.071 2008.61 743.022 2011.55 742.974 2014.48 743.196 2017.39 743.688ZM2038.65 717.956C2041.73 718.477 2043.7 719.387 2044.57 720.685 2045.45 721.983 2045.63 724.114 2045.13 727.077 2044.61 730.152 2043.7 732.154 2042.39 733.083 2041.08 734.012 2038.92 734.221 2035.9 733.71 2032.88 733.198 2030.93 732.308 2030.05 731.037 2029.18 729.767 2028.99 727.651 2029.49 724.687 2030.02 721.556 2030.92 719.524 2032.2 718.59 2033.48 717.656 2035.63 717.445 2038.65 717.956ZM2008.96 712.929C2012.04 713.45 2014.01 714.359 2014.88 715.657 2015.76 716.956 2015.94 719.086 2015.44 722.05 2014.92 725.125 2014.01 727.127 2012.7 728.056 2011.39 728.985 2009.23 729.193 2006.21 728.682 2003.19 728.171 2001.24 727.28 2000.36 726.01 1999.49 724.74 1999.3 722.623 1999.8 719.66 2000.33 716.529 2001.23 714.496 2002.51 713.563 2003.79 712.629 2005.94 712.418 2008.96 712.929Z" fill="#0000FF" fill-rule="evenodd"/><text fill="#000000" fill-opacity="0" font-family="Arial,Arial_MSFontService,sans-serif" font-size="117.257" x="1974.62" y="815.258">ä</text><path d="M2150.09 754.509C2151.31 755.233 2152.28 755.875 2153.01 756.436 2153.73 756.997 2154.25 757.505 2154.57 757.961 2154.9 758.416 2155.07 758.848 2155.09 759.257 2155.11 759.665 2155.01 760.064 2154.78 760.454L2096.75 858.167C2096.52 858.557 2096.22 858.828 2095.87 858.98 2095.51 859.133 2095.06 859.176 2094.51 859.111 2093.95 859.045 2093.25 858.829 2092.42 858.464 2091.58 858.098 2090.55 857.553 2089.33 856.829 2088.16 856.134 2087.21 855.506 2086.49 854.945 2085.77 854.385 2085.24 853.869 2084.89 853.399 2084.54 852.929 2084.36 852.509 2084.35 852.14 2084.34 851.77 2084.45 851.39 2084.68 851L2142.71 753.288C2142.94 752.898 2143.23 752.607 2143.57 752.416 2143.92 752.225 2144.38 752.169 2144.96 752.249 2145.54 752.329 2146.24 752.552 2147.08 752.918 2147.92 753.284 2148.92 753.814 2150.09 754.509Z" fill="#0000FF" fill-rule="evenodd"/><text fill="#000000" fill-opacity="0" font-family="Arial,Arial_MSFontService,sans-serif" font-size="106.927" x="2084.35" y="845.774">l</text><path d="M2186.05 841.919C2183.06 838.997 2179.98 837.014 2176.8 835.967 2173.62 834.92 2170.4 834.679 2167.12 835.244 2163.85 835.809 2160.58 837.078 2157.33 839.053 2154.08 841.028 2150.93 843.576 2147.87 846.697 2144.94 849.697 2142.46 852.784 2140.43 855.959 2138.41 859.134 2137.08 862.335 2136.44 865.561 2135.81 868.788 2136.01 872.039 2137.05 875.315 2138.08 878.591 2140.22 881.81 2143.45 884.971 2146.39 887.852 2149.47 889.827 2152.67 890.893 2155.86 891.96 2159.09 892.221 2162.35 891.676 2165.6 891.132 2168.84 889.862 2172.08 887.868 2175.31 885.873 2178.47 883.295 2181.56 880.133 2184.46 877.174 2186.92 874.107 2188.94 870.932 2190.97 867.757 2192.32 864.556 2193 861.329 2193.67 858.102 2193.49 854.851 2192.45 851.575 2191.41 848.299 2189.28 845.08 2186.05 841.919ZM2194.65 833.913C2199.15 838.315 2202.42 842.821 2204.45 847.43 2206.49 852.04 2207.37 856.712 2207.1 861.447 2206.84 866.182 2205.47 870.919 2203.02 875.657 2200.56 880.396 2197.1 885.056 2192.62 889.636 2188.25 894.095 2183.65 897.625 2178.81 900.224 2173.96 902.824 2169.05 904.341 2164.06 904.777 2159.07 905.213 2154.08 904.475 2149.09 902.565 2144.09 900.655 2139.29 897.439 2134.66 892.918 2130.17 888.516 2126.9 884.01 2124.86 879.401 2122.83 874.792 2121.94 870.12 2122.21 865.385 2122.48 860.65 2123.85 855.923 2126.33 851.204 2128.8 846.485 2132.3 841.815 2136.82 837.194 2141.18 832.735 2145.78 829.196 2150.6 826.576 2155.42 823.957 2160.33 822.429 2165.32 821.994 2170.31 821.558 2175.28 822.296 2180.23 824.206 2185.18 826.117 2189.99 829.353 2194.65 833.913Z" fill="#0000FF" fill-rule="evenodd"/><text fill="#000000" fill-opacity="0" font-family="Arial,Arial_MSFontService,sans-serif" font-size="83.0258" x="2122.17" y="894.52">o</text><path d="M2181.64 940.458C2179.54 939.509 2177.65 938.816 2175.98 938.379 2174.31 937.941 2172.81 937.691 2171.46 937.628 2170.12 937.566 2168.88 937.684 2167.76 937.985 2166.64 938.286 2165.55 938.712 2164.49 939.265 2161.23 940.977 2159.62 943.931 2159.68 948.128 2159.73 952.325 2161.31 957.387 2164.42 963.313 2166.4 967.08 2168.41 970.041 2170.47 972.195 2172.53 974.35 2174.57 975.89 2176.59 976.815 2178.61 977.74 2180.58 978.133 2182.49 977.995 2184.4 977.857 2186.21 977.34 2187.92 976.445 2190.83 974.918 2192.46 972.547 2192.79 969.331 2193.12 966.116 2192.27 962.448 2190.24 958.327ZM2245.39 919.714C2244.12 917.303 2242.62 915.417 2240.88 914.055 2239.15 912.693 2237.26 911.791 2235.24 911.348 2233.21 910.905 2231.13 910.875 2229 911.259 2226.86 911.642 2224.79 912.361 2222.78 913.414 2218.31 915.757 2215.46 918.869 2214.23 922.748 2213 926.627 2213.58 930.852 2215.97 935.422 2217.26 937.883 2218.77 939.814 2220.5 941.214 2222.23 942.614 2224.09 943.542 2226.09 943.998 2228.09 944.454 2230.14 944.497 2232.25 944.127 2234.37 943.757 2236.4 943.058 2238.36 942.031 2242.98 939.609 2245.92 936.451 2247.18 932.559 2248.43 928.666 2247.84 924.385 2245.39 919.714ZM2255 914.963C2256.08 917.023 2256.97 919.003 2257.68 920.904 2258.39 922.806 2258.95 924.64 2259.37 926.408L2270.11 946.9C2270.56 947.754 2270.48 948.611 2269.87 949.473 2269.27 950.334 2268.11 951.212 2266.4 952.107 2264.65 953.029 2263.25 953.455 2262.22 953.386 2261.2 953.317 2260.48 952.906 2260.09 952.153L2254.99 942.434C2254.11 945.14 2252.76 947.417 2250.94 949.266 2249.12 951.114 2247.04 952.657 2244.67 953.895 2240.76 955.949 2236.96 957.138 2233.29 957.462 2229.62 957.786 2226.13 957.327 2222.82 956.084 2219.51 954.841 2216.46 952.902 2213.67 950.267 2210.88 947.632 2208.46 944.356 2206.41 940.438 2204.96 937.676 2203.95 934.861 2203.37 931.993 2202.8 929.125 2202.71 926.723 2203.1 924.788 2201.72 924.358 2200.3 924.157 2198.85 924.185 2197.39 924.213 2195.9 924.622 2194.4 925.412 2192.64 926.333 2191.61 927.913 2191.31 930.151 2191.01 932.389 2191.52 934.89 2192.85 937.655L2201.37 955.754C2203.04 959.172 2204.19 962.505 2204.84 965.752 2205.48 968.999 2205.58 972.053 2205.13 974.916 2204.68 977.778 2203.63 980.372 2202.01 982.699 2200.38 985.026 2198.08 986.966 2195.12 988.52 2192 990.153 2188.7 991.053 2185.2 991.222 2181.7 991.391 2178.18 990.691 2174.64 989.123 2171.1 987.555 2167.62 985.009 2164.2 981.486 2160.78 977.962 2157.59 973.362 2154.61 967.687 2151.74 962.213 2149.77 957.311 2148.68 952.981 2147.6 948.652 2147.21 944.835 2147.53 941.532 2147.85 938.228 2148.83 935.438 2150.49 933.161 2152.14 930.885 2154.28 929.062 2156.89 927.693 2158.55 926.824 2160.26 926.182 2162.03 925.768 2163.79 925.353 2165.6 925.192 2167.44 925.283 2169.28 925.375 2171.16 925.7 2173.09 926.259 2175.01 926.818 2177.03 927.572 2179.12 928.521 2179.09 925.402 2179.72 922.751 2181.01 920.571 2182.3 918.39 2184.05 916.72 2186.26 915.562 2189.32 913.955 2192.39 913.148 2195.46 913.14 2198.52 913.132 2201.5 913.556 2204.38 914.414 2205.43 911.883 2206.88 909.553 2208.74 907.425 2210.6 905.296 2213.19 903.363 2216.5 901.625 2220.37 899.598 2224.18 898.434 2227.93 898.134 2231.68 897.833 2235.21 898.285 2238.53 899.49 2241.85 900.694 2244.93 902.62 2247.75 905.267 2250.58 907.914 2253 911.146 2255 914.963Z" fill="#0000FF" fill-rule="evenodd"/><text fill="#000000" fill-opacity="0" font-family="Arial,Arial_MSFontService,sans-serif" font-size="93.2028" x="2147.42" y="979.596">g</text><path d="M2277.47 1016.65C2276.77 1012.54 2275.45 1009.12 2273.5 1006.4 2271.55 1003.68 2269.08 1001.58 2266.1 1000.11 2263.13 998.641 2259.74 997.745 2255.95 997.424 2252.16 997.104 2248.11 997.306 2243.8 998.029 2239.66 998.725 2235.84 999.759 2232.33 1001.13 2228.83 1002.5 2225.87 1004.31 2223.45 1006.54 2221.04 1008.77 2219.29 1011.52 2218.2 1014.78 2217.1 1018.04 2216.93 1021.89 2217.68 1026.35 2218.36 1030.42 2219.68 1033.82 2221.64 1036.57 2223.6 1039.31 2226.05 1041.43 2229 1042.9 2231.95 1044.38 2235.32 1045.26 2239.11 1045.56 2242.9 1045.85 2246.97 1045.63 2251.33 1044.89 2255.41 1044.21 2259.21 1043.18 2262.72 1041.81 2266.22 1040.43 2269.2 1038.64 2271.65 1036.43 2274.09 1034.22 2275.86 1031.49 2276.95 1028.23 2278.04 1024.97 2278.22 1021.11 2277.47 1016.65ZM2289.13 1015.25C2290.18 1021.46 2290.16 1027.03 2289.09 1031.95 2288.02 1036.87 2285.98 1041.17 2282.98 1044.84 2279.97 1048.51 2276.08 1051.53 2271.31 1053.92 2266.53 1056.3 2260.98 1058.02 2254.67 1059.08 2248.51 1060.12 2242.71 1060.26 2237.27 1059.51 2231.82 1058.75 2226.96 1057.08 2222.67 1054.5 2218.38 1051.91 2214.78 1048.38 2211.87 1043.89 2208.96 1039.41 2206.97 1033.98 2205.9 1027.6 2204.86 1021.39 2204.87 1015.83 2205.94 1010.9 2207.01 1005.98 2209.05 1001.68 2212.06 998.016 2215.06 994.348 2218.96 991.336 2223.74 988.98 2228.52 986.625 2234.09 984.911 2240.47 983.84 2246.62 982.806 2252.42 982.652 2257.86 983.376 2263.3 984.101 2268.16 985.756 2272.45 988.342 2276.74 990.928 2280.32 994.452 2283.2 998.914 2286.07 1003.38 2288.05 1008.82 2289.13 1015.25Z" fill="#0000FF" fill-rule="evenodd"/><text fill="#000000" fill-opacity="0" font-family="Arial,Arial_MSFontService,sans-serif" font-size="77.0532" x="2205.13" y="1050.35">o</text></g></svg>